<svg width="30px" height="30px" viewBox="0 0 13 13" fill="none" xmlns="http://www.w3.org/2000/svg">
<g clip-path="url(#clip0_39_81)">
<path d="M11.9167 1.08334H1.08333C0.796016 1.08334 0.520465 1.19748 0.317301 1.40064C0.114137 1.60381 0 1.87936 0 2.16668L0 3.44501L5.81913 6.13059C6.03267 6.22918 6.26507 6.28024 6.50027 6.28024C6.73547 6.28024 6.96787 6.22918 7.18142 6.13059L13 3.44501V2.16668C13 1.87936 12.8859 1.60381 12.6827 1.40064C12.4795 1.19748 12.204 1.08334 11.9167 1.08334ZM6.5 7.36668C6.10725 7.36708 5.71912 7.28206 5.3625 7.11751L0 4.6383V10.8333C0 11.1207 0.114137 11.3962 0.317301 11.5994C0.520465 11.8025 0.796016 11.9167 1.08333 11.9167H11.9167C12.204 11.9167 12.4795 11.8025 12.6827 11.5994C12.8859 11.3962 13 11.1207 13 10.8333V4.6383L7.6375 7.1148C7.28115 7.28043 6.89297 7.36639 6.5 7.36668Z" fill="white"/>
</g>
<defs>
<clipPath id="clip0_39_81">
<rect width="13" height="13" fill="white"/>
</clipPath>
</defs>
</svg>
